<?xml version="1.0" encoding="utf-8"?>
<!-- Generator: Adobe Illustrator 26.0.1, SVG Export Plug-In . SVG Version: 6.00 Build 0)  -->
<svg version="1.1" id="Layer_1" xmlns="http://www.w3.org/2000/svg" xmlns:xlink="http://www.w3.org/1999/xlink" x="0px" y="0px"
	 viewBox="0 0 512 512" style="enable-background:new 0 0 512 512;" xml:space="preserve">
<style type="text/css">
	.st0{fill:#131614;}
	.st1{fill:#323A4D;}
	.st2{fill:#FFFFFF;}
	.st3{fill:#F08522;}
	.st4{fill:#7B5631;}
	.st5{fill:#FF0580;}
	.st6{fill:#0B1919;}
	.st7{fill:#D8DBDB;}
	.st8{fill:#00F77F;}
	.st9{fill:#DFFF0D;}
</style>
<g>
	<g>
		<rect x="215.8" y="190" class="st0" width="80.5" height="53.7"/>
		<rect x="202.3" y="243.7" class="st1" width="107.3" height="13.4"/>
		<rect x="215.8" y="257.1" class="st2" width="80.5" height="53.7"/>
		<rect x="229.2" y="310.8" class="st2" width="53.7" height="13.4"/>
		<rect x="215.8" y="324.2" class="st2" width="80.5" height="80.5"/>
		<rect x="202.3" y="337.6" class="st2" width="107.3" height="53.7"/>
		<rect x="202.3" y="404.7" class="st2" width="107.3" height="13.4"/>
		<rect x="188.9" y="418.1" class="st2" width="134.1" height="93.9"/>
		<rect x="175.5" y="431.5" class="st2" width="161" height="67.1"/>
		<rect x="229.2" y="270.5" class="st0" width="13.4" height="13.4"/>
		<rect x="269.4" y="270.5" class="st0" width="13.4" height="13.4"/>
		<rect x="215.8" y="283.9" class="st3" width="40.2" height="13.4"/>
		<rect x="148.7" y="351" class="st4" width="53.7" height="13.4"/>
		<rect x="135.3" y="337.6" class="st4" width="13.4" height="13.4"/>
		<rect x="121.9" y="364.4" class="st4" width="26.8" height="13.4"/>
		<g>
			
				<rect x="303" y="342.7" transform="matrix(0.86 -0.5102 0.5102 0.86 -134.003 210.3237)" class="st4" width="26.8" height="13.4"/>
			
				<rect x="319.2" y="317.5" transform="matrix(0.86 -0.5102 0.5102 0.86 -118.8601 215.074)" class="st4" width="26.8" height="13.4"/>
			
				<rect x="350" y="318.8" transform="matrix(0.86 -0.5102 0.5102 0.86 -116.1282 227.5741)" class="st4" width="13.4" height="13.4"/>
			
				<rect x="335.4" y="292.3" transform="matrix(0.86 -0.5102 0.5102 0.86 -103.7172 219.8243)" class="st4" width="26.8" height="13.4"/>
		</g>
		<rect x="242.6" y="337.6" class="st0" width="13.4" height="13.4"/>
		<rect x="242.6" y="364.4" class="st0" width="13.4" height="13.4"/>
		<rect x="242.6" y="391.3" class="st0" width="13.4" height="13.4"/>
	</g>
</g>
<g>
	<path d="M471.8,331l10,39l-39.2,9.9l1.3,5l44.1-11.2l-11.2-44L471.8,331z"/>
	<path d="M352.3,372.2l-10.4,10.3v68.2h5.1v-66.1l8.9-8.9L352.3,372.2z"/>
	<path class="st2" d="M447.2,297.2h-97.5v153.6h97.5V297.2z"/>
	<path d="M380.4,343.3h-5.1v5.1h5.1V343.3z"/>
	<path d="M385.6,348.4h-5.1v5.1h5.1V348.4z"/>
	<path d="M390.7,353.5h-5.1v5.1h5.1V353.5z"/>
	<path d="M380.4,353.5h-5.1v5.1h5.1V353.5z"/>
	<path d="M390.7,343.3h-5.1v5.1h5.1V343.3z"/>
	<path d="M411.2,343.3h-5.1v5.1h5.1V343.3z"/>
	<path d="M416.4,348.4h-5.1v5.1h5.1V348.4z"/>
	<path d="M421.5,353.5h-5.1v5.1h5.1V353.5z"/>
	<path d="M411.2,353.5h-5.1v5.1h5.1V353.5z"/>
	<path d="M421.5,343.3h-5.1v5.1h5.1V343.3z"/>
	<path d="M421.5,368.8h-46.2v5.1h46.2V368.8z"/>
	<path d="M390.7,450.8h-5.1v61.4h5.1V450.8z"/>
	<path d="M411.2,450.8h-5.1v61.4h5.1V450.8z"/>
</g>
<path d="M184.6,329.7l10,39.1l-39.2,10l1.3,5l44.1-11.2l-11.2-44.1L184.6,329.7z"/>
<path d="M65.2,371l-10.4,10.4v68.4h5.1v-66.3l8.9-8.9L65.2,371z"/>
<path class="st2" d="M160,295.8H62.5v154H160V295.8z"/>
<path d="M93.3,342h-5.1v5.1h5.1V342z"/>
<path d="M98.4,347.1h-5.1v5.1h5.1V347.1z"/>
<path d="M103.5,352.3h-5.1v5.1h5.1V352.3z"/>
<path d="M93.3,352.3h-5.1v5.1h5.1V352.3z"/>
<path d="M103.5,342h-5.1v5.1h5.1V342z"/>
<path d="M124.1,342h-5.1v5.1h5.1V342z"/>
<path d="M129.2,347.1h-5.1v5.1h5.1V347.1z"/>
<path d="M134.3,352.3h-5.1v5.1h5.1V352.3z"/>
<path d="M124.1,352.3h-5.1v5.1h5.1V352.3z"/>
<path d="M134.3,342h-5.1v5.1h5.1V342z"/>
<path d="M134.3,367.7H88.1v5.1h46.2V367.7z"/>
<path d="M103.5,449.8h-5.1v61.6h5.1V449.8z"/>
<path d="M124.1,449.8h-5.1v61.6h5.1V449.8z"/>
<path d="M106,281.1l-2,4.7l4.7,2l2-4.7L106,281.1z"/>
<path d="M172.3,308.6l-2,4.7l4.7,2l2-4.7L172.3,308.6z"/>
<path d="M180.6,262l-42.7-17.7l-19.7,47.4l-9.5-4l-2,4.7l9.4,4l42.7,17.7l9.4,3.9l2-4.7l-9.5-4L180.6,262z"/>
<g>
	<rect x="359.4" y="279.1" class="st5" width="19.5" height="9.8"/>
	<rect x="388.6" y="249.8" class="st6" width="9.8" height="29.3"/>
	<rect x="359.4" y="249.8" class="st7" width="29.3" height="9.8"/>
	<rect x="398.4" y="249.8" class="st7" width="29.3" height="9.8"/>
	<rect x="369.1" y="269.3" class="st5" width="19.5" height="9.8"/>
	<rect x="349.6" y="288.8" class="st5" width="19.5" height="9.8"/>
	<rect x="388.6" y="269.3" class="st8" width="9.8" height="9.8"/>
	<rect x="378.9" y="279.1" class="st8" width="19.5" height="9.8"/>
	<rect x="369.1" y="288.8" class="st8" width="29.3" height="9.8"/>
	<rect x="398.4" y="269.3" class="st9" width="9.8" height="9.8"/>
	<rect x="398.4" y="279.1" class="st9" width="19.5" height="9.8"/>
	<rect x="398.4" y="288.8" class="st9" width="29.3" height="9.8"/>
	<rect x="408.1" y="269.3" class="st8" width="19.5" height="9.8"/>
	<rect x="417.9" y="279.1" class="st8" width="19.5" height="9.8"/>
	<rect x="427.7" y="288.8" class="st8" width="19.5" height="9.8"/>
	<rect x="359.4" y="298.6" class="st5" width="78" height="9.8"/>
	<rect x="374" y="308.3" class="st5" width="48.8" height="9.8"/>
</g>
<g>
	<path class="st5" d="M141.3,32.5v5.1h6.3v6.3h-6.3V85H135V32.5H141.3z M147.7,50.2v-6.3h6.3v6.3H147.7z M154,50.2h6.3v12.7H154
		V50.2z M166.6,69.2h-6.3v-6.3h6.3V69.2z M166.6,62.8V50.2h6.3v12.7H166.6z M179.3,50.2H173v-6.3h6.3V50.2z M185.6,37.5v-5.1h6.3V85
		h-6.3V43.8h-6.3v-6.3H185.6z"/>
	<path class="st5" d="M235.2,32.4v6.4h-25.3V47h-6.3V32.4H235.2z M203.6,53.4h6.3V47h6.3v6.3h12.7v6.3h-19v19h25.3V85h-31.6V53.4z
		 M251.1,38.8V47h-6.3V32.4h31.6v6.4H251.1z M276.4,59.7V66h6.3v19h-6.3V72.4H270V66h-19v19h-6.3V53.4h6.3v6.3H276.4z M251.1,47h6.3
		v6.3h-6.3V47z M282.7,38.8V47h-6.3v-8.3H282.7z M282.7,59.7h-6.3v-6.3h6.3V59.7z M282.7,53.4V47h6.3v6.3H282.7z"/>
	<path class="st5" d="M327.2,59.7V66h6.3v19h-6.3V72.4h-6.3V66h-19v19h-6.3V32.4h31.6v6.4h-25.3v20.9H327.2z M327.2,38.8h6.3v20.9
		h-6.3V38.8z"/>
	<path class="st5" d="M363,55.5l14.9-23.1h8l-19.6,29.3V85h-7.1V61.8l-19.7-29.3h8.5L363,55.5z"/>
	<path class="st5" d="M46.5,116.2h6.3v27.2h-6.3V116.2z M59.2,116.2h-6.3v-6.3h6.3V116.2z M59.2,143.4v6.3h-6.3v-6.3H59.2z
		 M78.2,103.4v6.4h-19v-6.4H78.2z M59.2,156.1v-6.3h19v6.3H59.2z M84.5,109.8v6.3h-6.3v-6.3H84.5z M78.2,143.4h6.3v6.3h-6.3V143.4z"
		/>
	<path class="st5" d="M130.3,126.1v-22.6h7.1v52.5h-7.1v-24h-27.5v24h-7.1v-52.5h7.1v22.6H130.3z"/>
	<path class="st5" d="M180.6,130.8v6.3h6.3v19h-6.3v-12.7h-6.3v-6.3h-19v19H149v-52.6h31.6v6.4h-25.3v20.9H180.6z M180.6,109.8h6.3
		v20.9h-6.3V109.8z"/>
	<path class="st5" d="M205.8,156.1h-6.9v-52.5h6.9V156.1z"/>
	<path class="st5" d="M217.7,124.4v-14.6h6.3v14.6H217.7z M217.7,149.7v-6.3h6.3v6.3H217.7z M249.3,103.5v6.3H224v-6.3H249.3z
		 M224,130.8v-6.3h25.3v6.3H224z M249.3,149.7v6.3H224v-6.3H249.3z M255.6,109.8v6.3h-6.3v-6.3H255.6z M249.3,149.7v-19h6.3v19
		H249.3z"/>
	<path class="st5" d="M261.3,103.5h41.9v6h-17.4v46.6h-7.1v-46.6h-17.4V103.5z"/>
	<path class="st5" d="M316.1,156.1h-6.7v-52.5h9.3l17,43.6h0.1l17-43.6h9.3v52.5h-6.7v-42.9h-0.1l-16.7,42.9h-5.7l-16.7-42.9h-0.1
		V156.1z"/>
	<path class="st5" d="M411,137.1h6.3v19H411v-12.7h-31.6v12.7h-6.3v-19h6.3v-14.6h6.3v14.6h19v-14.6h6.3V137.1z M392.1,109.8v12.7
		h-6.3v-12.7H392.1z M392.1,103.5h6.3v6.3h-6.3V103.5z M404.7,122.5h-6.3v-12.7h6.3V122.5z"/>
	<path class="st5" d="M433.2,154.2c-3.7-2.1-6.1-5.2-7.3-9.4l6.4-2.3c0.7,3.1,2.4,5.3,5,6.7c2.6,1.4,5.7,2.1,9.4,2.1
		c4,0,7.3-0.8,9.9-2.3c2.6-1.5,3.9-3.8,3.9-6.9c0-2.1-0.7-3.9-2-5.2s-3.1-2.4-5.2-3.1c-2.1-0.7-4.8-1.4-7.9-2.1
		c-3.7-0.7-6.8-1.6-9.3-2.5c-2.5-0.9-4.6-2.4-6.3-4.3c-1.7-1.9-2.6-4.5-2.6-7.7c0-3.2,0.9-5.9,2.6-8.1c1.8-2.2,4.1-3.9,7.1-5
		s6.3-1.7,9.9-1.7c4.7,0,8.6,1,11.8,3c3.2,2,5.5,5.1,6.7,9.4l-6.3,2.4c-0.7-3.3-2.2-5.6-4.4-6.9c-2.2-1.3-4.9-2-8.2-2
		c-3.6,0-6.6,0.7-9,2c-2.4,1.4-3.6,3.5-3.6,6.3c0,1.9,0.6,3.4,1.8,4.5c1.2,1.1,2.8,2,4.7,2.6c1.9,0.6,4.3,1.2,7.2,1.7
		c3.8,0.7,7.1,1.6,9.9,2.6s5.1,2.7,6.9,4.9c1.9,2.2,2.8,5.1,2.8,8.7c0,5-1.9,8.9-5.8,11.5c-3.9,2.7-8.9,4-15,4
		C441.3,157.3,436.9,156.2,433.2,154.2z"/>
</g>
<g>
	<path class="st8" d="M477.4,220V218h2.1v2.1H477.4z M479.4,213.7h-2.1v2.1h2.1V213.7z M479.4,203.2v-2.1h-2.1v2.1H479.4z
		 M479.4,196.9h-2.1v2.1h2.1V196.9z M475.3,199v-2.1h-2.1v-2.1h-2.1v2.1h-2.1v2.1h-2.1v2.1h2.1v2.1h2.1v2.1h2.1v-2.1h2.1V201h2.1
		V199H475.3z M475.3,224.1v-2.1h-2.1v2.1H475.3z M475.3,209.5h-2.1v2.1h2.1V209.5z M475.3,207.5v-2.1h-2.1v2.1H475.3z M475.3,192.8
		h-2.1v2.1h2.1V192.8z M469.1,224.1h2.1v-2.1h-2.1V224.1z M469.1,209.5v2.1h2.1v-2.1H469.1z M469.1,207.5h2.1v-2.1h-2.1V207.5z
		 M469.1,192.8v2.1h2.1v-2.1H469.1z M469.1,217.8v2.1h2.1v2.2h2.1V220h2.1V218h2.1v-2.1h-2.1v-2.1h-2.1v-2.1h-2.1v2.1h-2.1v2.1H467
		v2.1h2.1V217.8z M466.9,232.6v-2.1h-2.1v2.1H466.9z M466.9,226.3h-2.1v2.1h2.1V226.3z M464.8,220h2.1V218h-2.1V220z M464.8,196.9
		v2.1h2.1v-2.1H464.8z M466.9,190.7v-2.1h-2.1v2.1H466.9z M466.9,184.4h-2.1v2.1h2.1V184.4z M458.5,201.2v2.1h2.1v2.1h-2.1v2.1h-6.3
		V201h2.1V199h2.1v2.1h2.2v-8.3h-2.1v2.1h-2.1v2.1h-2.1v2.2h-2.1v-2.1h-2.1v-2.1h-2.1v-2.1h-2.1v8.3h2.1V199h2.1v2.1h2.1v6.3H444
		v-2.1H442v-2.1h2.1v-2.1h-8.3v2.1h2.1v2.1h1.9v2.1h2.1v2.1h-2.1v2.1h-2.1v2.1h-2.1v2.1h8.3v-2.1h-2.1v-2.1h2.1v-2.1h6.3v6.3h-2.1
		v2.1h-2.1v-2.1H444v8.3h2.1v-1.9h2.1V220h2.1V218h2.1v2.1h2.1v2.1h2.1v2.1h2.1v-8.3h-2.1v2.1h-2.1v-2.1h-2.1v-6.3h6.3v2.1h2.1v2.1
		h-2.1v2.1h8.3v-2.1h-2.1v-2.1h-2.1v-2.1h-2.1v-2.1h2.1v-2.1h2.1v-2.1h2.1v-2.1h-8.3V201.2z M462.8,222.1h-2.1v2.1h2.1V222.1z
		 M462.8,194.9v-2.1h-2.1v2.1H462.8z M462.8,180.3h-2.1v2.1h2.1V180.3z M460.6,190.7h2.2v-2.1h2.1v-2.1h-2.1v-2.1h-2.1v-2.2h-2.1
		v2.1h-2.1v2.1h-2.1v2.1h2.1v2.1h2.1v2.1h2.1v-1.9H460.6z M456.5,236.7h2.1v-2.1h-2.1V236.7z M456.5,226.3v2.1h-2.1v2.1h2.1v2.1h2.1
		v2.1h2.1v-2.1h2.2v-2.1h2.1v-2.1h-2.1v-2.1h-2.1v-2.1h-2.1v2.1C458.7,226.3,456.5,226.3,456.5,226.3z M456.5,180.3v2.1h2.1v-2.1
		H456.5z M454.3,213.7h2.1v-2.1h-2.1V213.7z M454.3,205.3h2.1v-2.1h-2.1V205.3z M452.3,232.6h2.1v-2.1h-2.1V232.6z M452.3,226.3v2.1
		h2.1v-2.1H452.3z M452.3,190.7h2.1v-2.1h-2.1V190.7z M452.3,184.4v2.1h2.1v-2.1H452.3z M450.2,232.6v-2.1h-2.1v2.1H450.2z
		 M450.2,226.3h-2.1v2.1h2.1V226.3z M450.2,190.7v-2.1h-2.1v2.1H450.2z M450.2,184.4h-2.1v2.1h2.1V184.4z M448.1,211.6h-2.1v2.1h2.1
		V211.6z M448.1,203.2h-2.1v2.1h2.1V203.2z M446,236.7v-2.1h-2.1v2.1H446z M446,190.7v-2.1h2.1v-2.1H446v-2.1h-2.1v-2.2h-2.1v2.1
		h-2.2v2.1h-2.1v2.1h2.1v2.1h2.1v2.1h2.1v-2.1h2.2V190.7z M446,180.3h-2.1v2.1h2.1V180.3z M441.9,226.3h-2.2v2.1h-2.1v2.1h2.1v2.1
		h2.1v2.1h2.1v-2.1h2.1v-2.1h2.1v-2.1h-2.1v-2.1h-2.1v-2.1h-2.1v2.1H441.9z M439.7,236.7h2.1v-2.1h-2.1V236.7z M439.7,222.1v2.1h2.1
		v-2.1H439.7z M439.7,194.9h2.1v-2.1h-2.1V194.9z M439.7,180.3v2.1h2.1v-2.1H439.7z M435.6,232.6h2.1v-2.1h-2.1V232.6z M435.6,226.3
		v2.1h2.1v-2.1H435.6z M437.6,220V218h-2.1v2.1H437.6z M437.6,196.9h-2.1v2.1h2.1V196.9z M435.6,190.7h2.1v-2.1h-2.1V190.7z
		 M435.6,184.4v2.1h2.1v-2.1H435.6z M433.4,199v-2.1h-2.1v-2.1h-2.1v2.1h-2.1v2.1h-2.1v2.1h2.1v2.1h2.1v2.1h2.1v-2.1h2.1V201h2.1
		V199H433.4z M433.4,224.1v-2.1h-2.1v2.1H433.4z M433.4,213.7h-2.1v-2.1h-2.1v2.1h-2.1v2.1h-2.1v2.1h2.1v2.1h2.1v2.2h2.1V220h2.1
		V218h2.1v-2.1h-2.1V213.7z M433.4,209.5h-2.1v2.1h2.1V209.5z M433.4,207.5v-2.1h-2.1v2.1H433.4z M433.4,192.8h-2.1v2.1h2.1V192.8z
		 M427.1,224.1h2.1v-2.1h-2.1C427.1,222.1,427.1,224.1,427.1,224.1z M427.1,209.5v2.1h2.1v-2.1H427.1z M427.1,207.5h2.1v-2.1h-2.1
		C427.1,205.4,427.1,207.5,427.1,207.5z M427.1,192.8v2.1h2.1v-2.1H427.1z M423,220h2.1V218H423V220z M423,213.7v2.1h2.1v-2.1H423z
		 M423,203.2h2.1v-2.1H423V203.2z M423,196.9v2.1h2.1v-2.1H423z M460.6,236.7h2.2v-2.1h-2.1v2.1H460.6z"/>
</g>
<g>
	<path class="st8" d="M414.2,64l0.5-0.4l0.4,0.5l-0.5,0.4L414.2,64z M416.3,63.2l-0.4-0.5l-0.5,0.4l0.4,0.5L416.3,63.2z M419,61
		l0.5-0.4l-0.4-0.5l-0.5,0.4L419,61z M420.7,59.7l-0.4-0.5l-0.5,0.4l0.4,0.5L420.7,59.7z M419.3,59.1l0.5-0.4l-0.4-0.5l0.5-0.4
		l-0.4-0.5l-0.5,0.4l-0.4-0.5l-0.5,0.4l-0.4-0.5l-0.5,0.4l0.4,0.5l-0.5,0.4l0.4,0.5l-0.5,0.4l0.4,0.5l0.5-0.4l0.4,0.5l0.5-0.4
		l0.4,0.5l0.5-0.4L419.3,59.1z M412.7,64.4l0.5-0.4l-0.4-0.5l-0.5,0.4L412.7,64.4z M416.5,61.3l-0.4-0.5l-0.5,0.4l0.4,0.5
		L416.5,61.3z M417.1,60.9l0.5-0.4l-0.4-0.5l-0.5,0.4L417.1,60.9z M420.9,57.8l-0.4-0.5l-0.5,0.4l0.4,0.5L420.9,57.8z M411.4,62.7
		l0.4,0.5l0.5-0.4l-0.4-0.5L411.4,62.7z M415.2,59.7l-0.5,0.4l0.4,0.5l0.5-0.4L415.2,59.7z M415.8,59.2l0.4,0.5l0.5-0.4l-0.4-0.5
		L415.8,59.2z M419.6,56.2l-0.5,0.4l0.4,0.5l0.5-0.4L419.6,56.2z M413.1,61.4l-0.5,0.4l0.4,0.5l-0.6,0.5l0.4,0.5l0.5-0.4l0.4,0.5
		l0.5-0.4l0.4,0.5l0.5-0.4l-0.4-0.5l0.5-0.4l-0.4-0.5l0.5-0.4l-0.4-0.5l-0.5,0.4l-0.4-0.5l-0.5,0.4l-0.4-0.5l-0.5,0.4L413.1,61.4
		L413.1,61.4z M408.8,63.9l0.5-0.4l-0.4-0.5l-0.5,0.4L408.8,63.9z M410.4,62.6l-0.4-0.5l-0.5,0.4l0.4,0.5L410.4,62.6z M411.6,60.8
		l0.4,0.5l0.5-0.4l-0.4-0.5L411.6,60.8z M417.6,55.9l-0.5,0.4l0.4,0.5l0.5-0.4L417.6,55.9z M419.7,55.1l0.5-0.4l-0.4-0.5l-0.5,0.4
		L419.7,55.1z M421.3,53.8l-0.4-0.5l-0.5,0.4l0.4,0.5L421.3,53.8z M415.2,55.2l-0.5,0.4l0.4,0.5l-0.5,0.4l-0.4-0.5l-0.5,0.4
		l-1.3-1.6l1.6-1.3l0.4,0.5l0.5-0.4l0.4,0.5l-0.5,0.4L415.2,55.2l2.2-1.8l-0.4-0.5l-0.5,0.4l-0.4-0.5l-0.5,0.4l-0.4-0.5l-0.6,0.5
		l-0.4-0.5l0.5-0.4l-0.4-0.5l0.5-0.4l-0.4-0.5l0.5-0.4l-0.4-0.5l-2.2,1.8l0.4,0.5l0.6-0.5l0.4,0.5l-0.5,0.4l0.4,0.5l-1.6,1.3
		l-1.3-1.6l0.5-0.4l-0.4-0.5l0.5-0.4l0.4,0.5l0.5-0.4l-1.8-2.2l-0.5,0.4l0.4,0.5l-0.5,0.4l0.4,0.5l-0.5,0.4l0.4,0.5l-0.5,0.4
		l-0.4-0.5l-0.5,0.4l-0.4-0.5l-0.5,0.4l-0.4-0.5l-0.5,0.4l1.8,2.2l0.5-0.4l-0.4-0.5L409,53l0.4,0.5l0.5-0.4l1.3,1.6l-1.6,1.3
		l-0.4-0.5l-0.5,0.4l-0.4-0.5l0.5-0.4l-0.4-0.5l-2.2,1.8l0.4,0.5l0.5-0.4l0.4,0.5l0.5-0.4l0.4,0.5l0.5-0.4l0.4,0.5l-0.5,0.4l0.4,0.5
		l-0.5,0.4l0.4,0.5l-0.5,0.4l0.4,0.5l2.2-1.8l-0.4-0.5l-0.5,0.4l-0.4-0.5l0.5-0.4l-0.4-0.5l1.6-1.3l1.3,1.6l-0.5,0.4l0.4,0.5
		l-0.5,0.4l-0.4-0.5l-0.5,0.4l1.8,2.2l0.5-0.4l-0.4-0.5l0.5-0.4l-0.4-0.5l0.5-0.4l-0.4-0.5l0.5-0.4l0.4,0.5l0.5-0.4l0.4,0.5l0.5-0.4
		l0.4,0.5l0.5-0.4L415.2,55.2L415.2,55.2z M410.6,60.7l-0.4-0.5l-0.5,0.4l0.4,0.5L410.6,60.7z M417.7,55l0.5-0.4l-0.4-0.5l-0.5,0.4
		L417.7,55z M421.5,51.9l-0.4-0.5l-0.5,0.4l0.4,0.5L421.5,51.9z M418.3,53.5l0.5,0.6l0.5-0.4l0.4,0.5l0.5-0.4l-0.4-0.5l0.5-0.4
		l-0.4-0.5l0.6-0.5l-0.4-0.5l-0.5,0.4l-0.4-0.5l-0.5,0.4l-0.4-0.5l-0.5,0.4l0.4,0.5l-0.5,0.4L418,53l-0.5,0.4l0.4,0.5L418.3,53.5
		L418.3,53.5z M405.5,62.1l0.4,0.5l0.5-0.4l-0.4-0.5L405.5,62.1z M408.2,59.9l-0.5,0.4l-0.4-0.5l-0.5,0.4l0.4,0.5l-0.5,0.4l0.4,0.5
		l-0.5,0.4l0.4,0.5l0.5-0.4l0.5,0.6l0.5-0.4l0.4,0.5l0.5-0.4L409,62l0.5-0.4l-0.4-0.5l0.5-0.4l-0.4-0.5l-0.5,0.4
		C408.7,60.5,408.2,59.9,408.2,59.9z M420.2,50.2l-0.5,0.4l0.4,0.5l0.5-0.4L420.2,50.2z M411,56.7l0.4,0.5l0.5-0.4l-0.4-0.5
		L411,56.7z M413.2,54.9l0.4,0.5l0.5-0.4l-0.4-0.5L413.2,54.9z M405.7,60.1l0.4,0.5l0.5-0.4l-0.4-0.5L405.7,60.1z M407.3,58.8
		l-0.5,0.4l0.4,0.5l0.5-0.4L407.3,58.8z M416.6,51.3l0.4,0.5l0.5-0.4l-0.4-0.5L416.6,51.3z M418.2,50l-0.5,0.4l0.4,0.5l0.5-0.4
		L418.2,50z M405.3,59.6l0.5-0.4l-0.4-0.5l-0.5,0.4L405.3,59.6z M406.9,58.3l-0.4-0.5l-0.5,0.4l0.4,0.5L406.9,58.3z M416.2,50.8
		l0.5-0.4l-0.4-0.5l-0.5,0.4L416.2,50.8z M417.8,49.5l-0.4-0.5l-0.5,0.4l0.4,0.5L417.8,49.5z M410.3,54.7l-0.4-0.5l-0.5,0.4l0.4,0.5
		L410.3,54.7z M412.5,52.9l-0.4-0.5l-0.5,0.4l0.4,0.5L412.5,52.9z M403.3,59.4l0.5-0.4l-0.4-0.5l-0.5,0.4L403.3,59.4z M415.3,49.7
		l0.5-0.4l0.4,0.5l0.5-0.4l-0.4-0.5l0.5-0.4l-0.4-0.5l0.6-0.5l-0.4-0.5l-0.5,0.4l-0.5-0.6l-0.5,0.4l-0.4-0.5l-0.5,0.4l0.4,0.5
		L414,48l0.4,0.5l-0.5,0.4l0.4,0.5l0.5-0.4L415.3,49.7L415.3,49.7z M418,47.5l-0.4-0.5l-0.5,0.4l0.4,0.5L418,47.5z M405.1,56.1
		l-0.5-0.6l-0.5,0.4l-0.4-0.5l-0.5,0.4l0.4,0.5l-0.5,0.4l0.4,0.5l-0.5,0.4l0.4,0.5l0.5-0.4l0.4,0.5l0.5-0.4l0.4,0.5l0.5-0.4
		l-0.4-0.5l0.5-0.4l-0.4-0.5l0.5-0.4l-0.4-0.5L405.1,56.1L405.1,56.1z M402,57.7l0.4,0.5l0.5-0.4l-0.4-0.5L402,57.7z M405.8,54.7
		l-0.5,0.4l0.4,0.5l0.5-0.4L405.8,54.7z M412.9,49l0.4,0.5l0.5-0.4l-0.4-0.5L412.9,49z M416.7,45.9l-0.5,0.4l0.4,0.5l0.5-0.4
		L416.7,45.9z M402.2,55.8l0.4,0.5l0.5-0.4l-0.4-0.5L402.2,55.8z M403.8,54.5l-0.5,0.4l0.4,0.5l0.5-0.4L403.8,54.5z M405.9,53.7
		l0.5-0.4l-0.4-0.5l-0.5,0.4L405.9,53.7z M411.9,48.9l-0.4-0.5l-0.5,0.4l0.4,0.5L411.9,48.9z M413.1,47l0.4,0.5l0.5-0.4l-0.4-0.5
		L413.1,47z M414.7,45.7l-0.5,0.4l0.4,0.5l0.5-0.4L414.7,45.7z M410.5,48.2l0.5-0.4l-0.4-0.5l0.5-0.4l-0.4-0.5l-0.5,0.4l-0.4-0.5
		l-0.5,0.4l-0.4-0.5l-0.5,0.4l0.4,0.5l-0.5,0.4l0.4,0.5l-0.5,0.4l0.4,0.5l0.5-0.4l0.4,0.5l0.5-0.4l0.4,0.5l0.5-0.4L410.5,48.2z
		 M403.9,53.5l0.5-0.4l-0.4-0.5l-0.5,0.4L403.9,53.5z M406.6,51.3l-0.4-0.5l0.5-0.4l-0.4-0.5l-0.5,0.4l-0.4-0.5l-0.5,0.4l-0.4-0.5
		l-0.5,0.4l0.4,0.5l-0.5,0.4l0.4,0.5l-0.6,0.5l0.4,0.5l0.5-0.4l0.4,0.5l0.5-0.4l0.4,0.5l0.5-0.4l-0.4-0.5L406.6,51.3z M407.7,50.4
		l-0.4-0.5l-0.5,0.4l0.4,0.5L407.7,50.4z M408.3,50l0.5-0.4l-0.4-0.5l-0.5,0.4L408.3,50z M412.1,46.9l-0.4-0.5l-0.5,0.4l0.4,0.5
		L412.1,46.9z M402.6,51.8l0.4,0.5l0.5-0.4l-0.4-0.5C403.1,51.4,402.6,51.8,402.6,51.8z M406.4,48.8l-0.5,0.4l0.4,0.5l0.5-0.4
		L406.4,48.8z M406.9,48.3l0.4,0.5l0.5-0.4l-0.4-0.5C407.5,47.9,406.9,48.3,406.9,48.3z M410.7,45.3l-0.5,0.4l0.4,0.5l0.5-0.4
		L410.7,45.3z M402.8,49.9l0.4,0.5l0.5-0.4l-0.4-0.5L402.8,49.9z M404.5,48.6l-0.5,0.4l0.4,0.5l0.5-0.4L404.5,48.6z M407.2,46.4
		l0.4,0.5l0.5-0.4l-0.4-0.5L407.2,46.4z M408.8,45.1l-0.5,0.4l0.4,0.5l0.5-0.4L408.8,45.1z M406.4,63.2l0.5,0.6l0.5-0.4l-0.4-0.5
		L406.4,63.2L406.4,63.2z"/>
</g>
<g>
	<path class="st8" d="M45.3,227l1.3-1l1,1.3l-1.3,1L45.3,227z M50.2,225.1l-1-1.3l-1.3,1l1,1.3L50.2,225.1z M56.6,219.9l1.3-1
		l-1-1.3l-1.3,1L56.6,219.9z M60.5,216.8l-1-1.3l-1.3,1l1,1.3L60.5,216.8z M57.2,215.3l1.3-1l-1-1.3l1.3-1l-1-1.3l-1.3,1l-1-1.3
		l-1.3,1l-1-1.3l-1.3,1l1,1.3l-1.3,1l1,1.3l-1.3,1l1,1.3l1.3-1l1,1.3l1.3-1l1,1.3l1.3-1L57.2,215.3z M41.7,227.8l1.3-1l-1-1.3
		l-1.3,1L41.7,227.8z M50.7,220.5l-1-1.3l-1.3,1l1,1.3L50.7,220.5z M52,219.5l1.3-1l-1-1.3l-1.3,1L52,219.5z M61,212.2l-1-1.3
		l-1.3,1l1,1.3L61,212.2z M38.6,223.9l1,1.3l1.3-1l-1-1.3L38.6,223.9z M47.6,216.6l-1.3,1l1,1.3l1.3-1L47.6,216.6z M48.9,215.6
		l1,1.3l1.3-1l-1-1.3L48.9,215.6z M57.9,208.3l-1.3,1l1,1.3l1.3-1L57.9,208.3z M42.5,220.8l-1.3,1l1,1.3l-1.3,1.1l1,1.3l1.3-1l1,1.3
		l1.3-1l1,1.3l1.3-1l-1-1.3l1.3-1l-1-1.3l1.3-1l-1-1.3l-1.3,1l-1-1.3l-1.3,1l-1-1.3l-1.3,1L42.5,220.8L42.5,220.8z M32.3,226.8
		l1.3-1l-1-1.3l-1.3,1L32.3,226.8z M36.2,223.6l-1-1.3l-1.3,1l1,1.3L36.2,223.6z M39,219.3l1,1.3l1.3-1l-1-1.3L39,219.3z
		 M53.2,207.8l-1.3,1l1,1.3l1.3-1L53.2,207.8z M58.1,205.9l1.3-1l-1-1.3l-1.3,1L58.1,205.9z M62,202.8l-1-1.3l-1.3,1l1,1.3L62,202.8
		z M47.5,206l-1.3,1l1,1.3l-1.3,1l-1-1.3l-1.3,1l-3.1-3.9l3.9-3.1l1,1.3l1.3-1l1,1.3l-1.3,1L47.5,206l5.2-4.2l-1-1.3l-1.3,1l-1-1.3
		l-1.3,1l-1-1.3l-1.3,1.1l-1-1.3l1.3-1l-1-1.3l1.3-1l-1-1.3l1.3-1l-1-1.3l-5.1,4.1l1,1.3l1.3-1.1l1,1.3l-1.3,1l1,1.3l-3.9,3.1
		l-3.1-3.9l1.3-1l-1-1.3l1.3-1l1,1.3l1.3-1l-4.1-5.1l-1.3,1l1,1.3l-1.3,1l1,1.2l-1.3,1l1,1.3l-1.3,1l-1-1.3l-1.3,1l-1-1.3l-1.3,1
		l-1-1.3l-1.3,1l4.1,5.1l1.3-1l-1-1.3l1.3-1l1,1.3l1.3-1l3.1,3.9l-3.9,3.1l-1-1.3l-1.3,1l-1-1.3l1.3-1l-1-1.3l-5.1,4.1l1,1.3l1.2-1
		l1,1.3l1.3-1l1,1.3l1.3-1l1,1.3l-1.3,1l1,1.3l-1.3,1l1,1.3l-1.3,1l1,1.3l5.1-4.1l-1-1.3l-1.3,1l-1-1.3l1.3-1l-1-1.3l3.9-3.1
		l3.1,3.9l-1.3,1l1,1.3l-1.3,1l-1-1.3l-1.3,1l4.1,5.1l1.3-1l-1-1.3l1.3-1l-1-1.3l1.3-1l-1-1.3l1.3-1l1,1.3l1.3-1l1,1.3l1.3-1l1,1.3
		l1.3-1L47.5,206L47.5,206z M36.7,219l-1-1.3l-1.3,1l1,1.3L36.7,219z M53.5,205.5l1.3-1l-1-1.3l-1.3,1L53.5,205.5z M62.5,198.2
		l-1-1.3l-1.3,1l1,1.3L62.5,198.2z M55,202l1.1,1.3l1.3-1l1,1.3l1.3-1l-1-1.3l1.3-1l-1-1.3l1.3-1.1l-1-1.3l-1.3,1l-1-1.3l-1.3,1
		l-1-1.3l-1.3,1l1,1.3l-1.3,1l1,1.3l-1.3,1l1,1.3L55,202L55,202z M24.6,222.4l1,1.3l1.3-1l-1-1.3L24.6,222.4z M31,217.3l-1.3,1
		l-1-1.3l-1.3,1l1,1.3l-1.3,1l1,1.3l-1.3,1l1,1.3l1.3-1l1.1,1.3l1.3-1l1,1.3l1.3-1l-1-1.3l1.3-1l-1-1.3l1.3-1l-1-1.3l-1.3,1
		C32.1,218.6,31,217.3,31,217.3z M59.3,194.3l-1.3,1l1,1.3l1.3-1L59.3,194.3z M37.7,209.7l1,1.3l1.3-1l-1-1.3L37.7,209.7z
		 M42.9,205.4l1,1.3l1.3-1l-1-1.3L42.9,205.4z M25,217.8l1,1.3l1.3-1l-1-1.3L25,217.8z M28.9,214.6l-1.3,1l1,1.3l1.3-1L28.9,214.6z
		 M50.9,196.9l1,1.3l1.3-1l-1-1.3L50.9,196.9z M54.7,193.8l-1.3,1l1,1.3l1.3-1L54.7,193.8z M24,216.5l1.3-1l-1-1.3l-1.3,1L24,216.5z
		 M27.9,213.4l-1-1.3l-1.3,1l1,1.3L27.9,213.4z M49.8,195.6l1.3-1l-1-1.3l-1.3,1L49.8,195.6z M53.7,192.5l-1-1.3l-1.3,1l1,1.3
		L53.7,192.5z M35.9,204.8l-1-1.3l-1.3,1l1,1.3L35.9,204.8z M41.1,200.6l-1-1.3l-1.3,1l1,1.3L41.1,200.6z M19.4,216l1.3-1l-1-1.3
		l-1.3,1L19.4,216z M47.7,193l1.3-1l1,1.3l1.3-1l-1-1.3l1.3-1l-1-1.3l1.3-1.1l-1-1.3l-1.3,1l-1.1-1.3l-1.3,1l-1-1.3l-1.3,1l1,1.3
		l-1.3,1l1,1.3l-1.3,1l1,1.3l1.3-1L47.7,193L47.7,193z M54.1,187.9l-1-1.3l-1.3,1l1,1.3L54.1,187.9z M23.7,208.3l-1.1-1.3l-1.3,1
		l-1-1.3l-1.3,1l1,1.3l-1.3,1l1,1.3l-1.3,1l1,1.3l1.3-1l1,1.3l1.3-1l1,1.3l1.3-1l-1-1.3l1.3-1l-1-1.3l1.3-1l-1-1.3L23.7,208.3
		L23.7,208.3z M16.3,212.1l1,1.3l1.3-1l-1-1.3L16.3,212.1z M25.3,204.8l-1.3,1l1,1.3l1.3-1L25.3,204.8z M42,191.3l1,1.3l1.3-1
		l-1-1.3L42,191.3z M51,184l-1.3,1l1,1.3l1.3-1L51,184z M16.7,207.5l1,1.3l1.3-1l-1-1.3L16.7,207.5z M20.6,204.4l-1.3,1l1,1.3l1.3-1
		L20.6,204.4z M25.5,202.5l1.3-1l-1-1.3l-1.3,1L25.5,202.5z M39.7,191l-1-1.3l-1.3,1l1,1.3L39.7,191z M42.6,186.6l1,1.3l1.3-1
		l-1-1.3L42.6,186.6z M46.4,183.5l-1.3,1l1,1.3l1.3-1L46.4,183.5z M36.3,189.5l1.3-1l-1-1.3l1.3-1l-1-1.3l-1.3,1l-1-1.3l-1.3,1
		l-1-1.3l-1.3,1l1,1.3l-1.3,1l1,1.3l-1.3,1l1,1.3l1.3-1l1,1.3l1.3-1l1,1.3l1.3-1L36.3,189.5z M20.9,202l1.3-1l-1-1.3l-1.3,1
		L20.9,202z M27.3,196.8l-1-1.3l1.3-1l-1-1.3l-1.3,1l-1-1.3l-1.3,1l-1-1.3l-1.3,1l1,1.3l-1.3,1l1,1.3l-1.3,1.1l1,1.3l1.3-1l1,1.3
		l1.3-1l1,1.3l1.3-1l-1-1.3L27.3,196.8z M29.9,194.7l-1-1.3l-1.3,1l1,1.3L29.9,194.7z M31.1,193.7l1.3-1l-1-1.3l-1.3,1L31.1,193.7z
		 M40.1,186.4l-1-1.3l-1.3,1l1,1.3L40.1,186.4z M17.7,198.1l1,1.3l1.3-1l-1-1.3C19,197.1,17.7,198.1,17.7,198.1z M26.7,190.8l-1.3,1
		l1,1.3l1.3-1L26.7,190.8z M28,189.8l1,1.3l1.3-1l-1-1.3C29.3,188.8,28,189.8,28,189.8z M37,182.5l-1.3,1l1,1.3l1.3-1L37,182.5z
		 M18.2,193.5l1,1.3l1.3-1l-1-1.3L18.2,193.5z M22.1,190.4l-1.3,1l1,1.3l1.3-1L22.1,190.4z M28.6,185.2l1,1.3l1.3-1l-1-1.3
		L28.6,185.2z M32.4,182l-1.3,1l1,1.3l1.3-1L32.4,182z M26.7,224.9l1.1,1.3l1.3-1l-1-1.3L26.7,224.9L26.7,224.9z"/>
</g>
<g>
	<path class="st4" d="M379.3,481.2h-6.8v2.3h4.5v2.3h2.3v2.3H377v-2.3h-4.5v-2.3h-2.3v-2.3h2.3v-2.3h-6.8v-2.3h-13.5v2.3h-6.8v2.3
		h-2.3v2.3h-2.3v2.3h4.5v2.3h2.3v2.3h2.3v2.3h-2.3v-2.3h-2.3v-2.3h-4.5v-2.3h-11.4v2.3H325v-4.5h2.3v-6.8H325v2.3h-2.3v4.5h-2.3
		v-6.8h-2.3v2.3H316v4.5h-2.3v2.3h-2.3v2.3h-2.3v4.5h2.3v2.3h2.3v2.3h-4.5v2.3h-4.5v2.3h-2.3v2.3h6.8v-2.3h4.5v-2.3h2.3v2.3h-2.3
		v2.3h-4.5v2.3h-4.5v2.3h-2.3v2.3h6.8v-2.3h4.5V506h9v-2.3h6.8v-2.3h15.8v2.3h13.5v2.3h4.5v2.3h6.8V506h-2.3v-2.3h-4.5v-2.3h-2.3
		v-2.3h-2.3V497h-2.3v-2.3h-2.3v-2.3h-2.3v-4.5h9v2.3h4.5v-2.3h-2.3v-2.3h-4.5v-2.3h4.5v2.3h2.3v2.3h6.8v2.3h-6.8v2.3h2.3v2.3h9
		v-2.3h2.3v-2.3h2.3v-6.8h-2.3v-2.3H379.3z M316,490.2v-2.3h2.3v2.3H316z M316,494.7h4.5v-2.3h4.5v-2.3h2.3v2.3H325v2.3h-4.5v2.3
		H316C316,497,316,494.7,316,494.7z M354.3,481.2v2.3h-4.5v2.3h-2.3v-2.3h2.3v-2.3H354.3v-2.3h6.8v2.3H354.3z M329.5,476.7h-2.3
		v-2.3h2.3V476.7z M322.7,476.7h-2.3v-2.3h2.3V476.7z"/>
</g>
<g>
	<g>
		<path class="st8" d="M473,285.4l-1.3-5.2l-2.6,0.7l-1.3-5.1l-2.6,0.7l-5.3-20.6l1.3-0.3l-1.3-5.2l-12.9,3.3l1.3,5.2l1.3-0.3
			l5.3,20.6l-2.6,0.7l1.3,5.1l-2.5,0.7l1.3,5.2l-2.6,0.7l11.2,43.8l2.6-0.7l0.7,2.6l10.3-2.6l-0.7-2.6l0,0l0.7,2.6l10.3-2.6
			l-0.7-2.6l2.6-0.7l-11.2-43.8L473,285.4z M462.7,288.1L462.7,288.1z M481.6,319.1l-20.6,5.3l-7.3-28.6l20.6-5.3L481.6,319.1z"/>
	</g>
	<g>
		<rect x="467" y="314.4" transform="matrix(0.9687 -0.2481 0.2481 0.9687 -63.7054 126.0919)" width="2.7" height="2.7"/>
		<rect x="469" y="311.1" transform="matrix(0.9687 -0.2481 0.2481 0.9687 -62.8169 126.4773)" width="2.7" height="2.7"/>
		<rect x="473.6" y="307.1" transform="matrix(0.9687 -0.2481 0.2481 0.9687 -61.6768 127.4997)" width="2.7" height="2.7"/>
		<rect x="469.3" y="297" transform="matrix(0.9687 -0.2481 0.2481 0.9687 -60.3359 126.2339)" width="2.7" height="11"/>
		<rect x="463.7" y="312.4" transform="matrix(0.9687 -0.2481 0.2481 0.9687 -63.32 125.2033)" width="2.7" height="2.7"/>
		<rect x="459" y="299.7" transform="matrix(0.9687 -0.2481 0.2481 0.9687 -61.6606 123.8117)" width="2.7" height="13.7"/>
	</g>
</g>
</svg>
